<?xml version="1.0" encoding="utf-8"?>
<!-- Generator: Adobe Illustrator 24.2.3, SVG Export Plug-In . SVG Version: 6.00 Build 0)  -->
<svg version="1.1" id="Layer_1" xmlns="http://www.w3.org/2000/svg" xmlns:xlink="http://www.w3.org/1999/xlink" x="0px" y="0px"
	 viewBox="0 0 394.01 293.04" style="enable-background:new 0 0 394.01 293.04;" xml:space="preserve">
<style type="text/css">
	.st0{fill:#DADADA;}
	.st1{display:none;}
</style>
<path class="st0" d="M279.7,93.18c8.24,11.87,14.08,24.6,17.37,38.47c5.83,24.6,3.32,48.73-4.47,72.47
	c-8.87,27.01-23.31,51.05-40.18,73.72c-4.06,5.45-9.71,8.1-16.45,8.11c-52.21,0.04-104.43,0.04-156.64-0.01
	c-6.46-0.01-12.01-2.47-15.91-7.7c-20.03-26.87-36.79-55.44-44.42-88.5c-7.54-32.64-3.93-63.69,14.1-92.48
	c0.82-1.31,1.72-2.56,2.74-4.07c1.11,0.65,2.14,1.17,3.08,1.82c9.25,6.43,18.64,6.61,28.24,0.78c3.88-2.36,7.89-4.52,11.78-6.88
	c6.23-3.79,12.4-3.76,18.64-0.07c4.02,2.37,8.11,4.61,12.13,6.98c9.25,5.45,18.35,5.32,27.39-0.52c4.02-2.59,8.16-5,12.18-7.6
	c5.63-3.63,11.18-3.64,16.83-0.07c4.45,2.81,8.99,5.47,13.47,8.24c8.29,5.12,16.69,5.22,25.16,0.52c4.6-2.55,9.18-5.14,13.74-7.77
	c5.92-3.42,11.78-3.44,17.68,0.05c3.91,2.31,7.9,4.5,11.77,6.89c9.79,6.03,19.39,6.02,28.87-0.66
	C277.65,94.3,278.6,93.82,279.7,93.18z M217.41,203.03c0-4.55-0.16-9.11,0.05-13.65c0.16-3.4-1.03-5.56-4.07-7.23
	c-7.24-3.96-14.28-8.28-21.48-12.31c-1.8-1.01-2.47-2.16-2.45-4.22c0.11-8.5-0.01-17,0.08-25.51c0.02-2.52-0.71-4.34-2.98-5.63
	c-8.63-4.91-17.23-9.87-25.79-14.9c-2.12-1.24-3.94-1.13-6.02,0.1c-8.35,4.92-16.72,9.8-25.16,14.55c-2.51,1.41-3.53,3.23-3.49,6.07
	c0.11,8.14-0.08,16.29,0.1,24.43c0.06,2.74-0.74,4.3-3.19,5.63c-7.14,3.89-14.09,8.14-21.19,12.1c-2.49,1.39-3.6,3.21-3.57,6.05
	c0.08,9.58,0.07,19.16,0.01,28.74c-0.02,2.68,1,4.45,3.38,5.79c8.34,4.7,16.64,9.46,24.86,14.37c2.46,1.47,4.51,1.53,6.97,0.05
	c6.87-4.12,13.93-7.94,20.76-12.12c2.55-1.56,4.51-1.72,7.14-0.11c6.93,4.26,14.08,8.14,21.07,12.31c2.2,1.31,4.09,1.45,6.33,0.13
	c8.45-4.98,16.95-9.87,25.48-14.72c2.23-1.27,3.22-3.01,3.18-5.55C217.36,212.61,217.41,207.82,217.41,203.03z"/>
<path class="st0" d="M31.93,81.27c4.39-4.58,8.51-8.89,12.64-13.18c8.31-8.62,16.56-17.3,25.01-25.79c1.26-1.26,3.45-2.24,5.21-2.25
	c55.32-0.12,110.65-0.11,165.97-0.02c1.6,0,3.67,0.62,4.74,1.71c12.48,12.75,24.81,25.64,37.17,38.51c0.23,0.24,0.35,0.57,0.73,1.2
	c-4.88,3.07-9.68,6.19-14.58,9.13c-4.35,2.61-8.92,2.6-13.36,0.29c-4.13-2.16-8.29-4.33-12.16-6.9
	c-10.63-7.06-21.14-7.23-31.87-0.25c-3.6,2.34-7.44,4.33-11.22,6.39c-5.38,2.92-10.77,2.85-16.04-0.33
	c-4.41-2.65-8.82-5.3-13.14-8.08c-8.87-5.71-17.67-5.81-26.57-0.05c-4.32,2.8-8.73,5.45-13.13,8.11c-5.26,3.18-10.65,3.3-16.03,0.36
	c-4.72-2.58-9.4-5.25-14.07-7.92c-8.78-5.03-17.49-4.97-26.2,0.19c-4.22,2.5-8.51,4.88-12.73,7.38c-6.18,3.67-12.19,3.55-18.16-0.53
	C40.22,86.55,36.19,84.03,31.93,81.27z"/>
<path class="st0" d="M324.97,198.06c-10.53-26.27-21.07-52.54-31.6-78.82c-0.53-1.31-1.09-2.62-1.52-3.96
	c-1.33-4.16-0.02-7.25,3.94-8.94c4.34-1.85,8.72-3.6,13.13-5.27c4.05-1.53,7.09-0.26,9.04,3.67c0.63,1.26,1.14,2.59,1.67,3.9
	c21.07,52.54,42.13,105.09,63.19,157.64c0.61,1.53,1.24,3.07,1.68,4.65c1.01,3.61-0.32,6.6-3.79,8.1
	c-4.55,1.96-9.15,3.81-13.79,5.53c-3.69,1.37-6.75,0.05-8.55-3.47c-0.7-1.36-1.24-2.8-1.81-4.23
	C346.03,250.61,335.5,224.34,324.97,198.06z"/>
<path class="st1" d="M171.67-31.64c-26.14-10.86-52.28-21.72-78.41-32.59c-1.31-0.54-2.63-1.06-3.89-1.69
	c-3.9-1.96-5.19-5.06-3.63-9.06c1.72-4.39,3.53-8.75,5.43-13.07c1.74-3.97,4.78-5.24,8.95-3.89c1.34,0.44,2.65,1,3.95,1.54
	c52.28,21.72,104.55,43.44,156.83,65.17c1.52,0.63,3.06,1.26,4.5,2.05c3.28,1.81,4.49,4.85,3.14,8.38c-1.78,4.62-3.68,9.2-5.7,13.72
	c-1.6,3.59-4.69,4.86-8.46,3.68c-1.46-0.46-2.87-1.08-4.28-1.67C223.95-9.92,197.81-20.78,171.67-31.64z"/>
<path class="st0" d="M157.8,9.07c26.46,0,52.91,0.06,79.37-0.07c3.44-0.02,4.64,0.91,4.46,4.42c-0.28,5.25-0.14,10.53-0.04,15.8
	c0.04,2.18-0.81,3.02-2.96,2.94c-2.75-0.11-5.51-0.02-8.26-0.02c-50.52,0-101.04,0-151.56,0c-4.74,0-4.74-0.01-4.75-4.7
	c0-4.79,0.18-9.59-0.06-14.36C73.84,9.89,74.93,8.99,78.07,9C104.65,9.11,131.23,9.07,157.8,9.07z"/>
<path class="st0" d="M153.88,202.79c0,1.56-0.24,3.16,0.04,4.66c1.25,6.76-1.46,10.86-7.75,13.53c-4.7,1.99-9.01,4.94-13.41,7.6
	c-1.83,1.11-3.35,1.34-5.28,0.18c-6.26-3.74-12.67-7.23-18.87-11.06c-1.13-0.7-2.12-2.58-2.16-3.94c-0.21-7.29-0.21-14.6,0-21.89
	c0.04-1.37,1.05-3.25,2.19-3.96c6.19-3.85,12.5-7.53,18.92-10.97c1.28-0.69,3.55-0.7,4.82-0.02c6.33,3.37,12.43,7.16,18.7,10.64
	c2.18,1.21,2.98,2.75,2.85,5.2C153.74,196.08,153.88,199.44,153.88,202.79z"/>
<path class="st0" d="M209.26,203.07c0,3.59,0.21,7.19-0.1,10.75c-0.12,1.39-1.06,3.23-2.2,3.94c-6.29,3.89-12.72,7.59-19.23,11.11
	c-1.1,0.6-3.09,0.55-4.21-0.05c-6.4-3.47-12.73-7.09-18.91-10.95c-1.24-0.77-2.37-2.76-2.42-4.23c-0.24-7.28-0.23-14.58,0-21.86
	c0.04-1.36,1.12-3.2,2.29-3.93c6.29-3.91,12.7-7.62,19.2-11.16c1.09-0.59,3.09-0.52,4.2,0.09c6.49,3.55,12.9,7.26,19.2,11.15
	c1.07,0.66,1.98,2.38,2.07,3.68C209.44,195.41,209.26,199.25,209.26,203.07z"/>
<path class="st0" d="M181.36,156.48c0.9,11.71-2.39,14.88-11.78,18.71c-4.06,1.66-7.78,5.79-11.66,5.8
	c-3.88,0.01-7.79-3.68-11.64-5.81c-3.14-1.74-6.17-3.67-9.35-5.33c-1.94-1.01-2.75-2.3-2.72-4.52c0.11-7.18-0.11-14.37,0.16-21.55
	c0.06-1.54,1.29-3.62,2.61-4.44c6.08-3.81,12.33-7.36,18.65-10.75c1.2-0.64,3.34-0.64,4.54,0.01c6.32,3.39,12.56,6.96,18.65,10.76
	c1.24,0.77,2.29,2.72,2.43,4.22C181.6,147.26,181.36,150.99,181.36,156.48z"/>
</svg>
