<svg id="Layer_1" data-name="Layer 1" xmlns="http://www.w3.org/2000/svg" xmlns:xlink="http://www.w3.org/1999/xlink" viewBox="0 0 920.99 905.56"><defs><style>.cls-1{fill:#fff8e3;}.cls-2{fill:url(#linear-gradient);}.cls-3,.cls-9{fill:#fbd203;}.cls-4{fill:#ffe47a;}.cls-5{fill:url(#linear-gradient-2);}.cls-6{fill:#2b2b2b;}.cls-7{fill:#fcf1c3;}.cls-8{opacity:0.8;}.cls-9{opacity:0.81;}.cls-10{opacity:0.3;}.cls-11,.cls-12{fill:none;}.cls-11{stroke:#fcfcfc;stroke-miterlimit:10;stroke-width:50px;}.cls-13{fill:#fff;}</style><linearGradient id="linear-gradient" x1="513.42" y1="865.4" x2="504.47" y2="250.51" gradientUnits="userSpaceOnUse"><stop offset="0" stop-color="#ab811f"/><stop offset="1" stop-color="#cc9a25"/></linearGradient><linearGradient id="linear-gradient-2" x1="535.13" y1="329.05" x2="499.33" y2="834.82" gradientTransform="translate(1000 1650.65) rotate(-180)" xlink:href="#linear-gradient"/></defs><path class="cls-1" d="M907.52,659c-87,204.94-318.88,319.75-519.94,288.78-32.72-5-122.41-20-201.82-90.87C32.89,720.58.2,450.63,123.51,260.39,213.26,121.92,374.15,43.44,527,47.36c32.93.85,159.13,6.06,270,97.51a415.81,415.81,0,0,1,84.6,96C957.71,359.77,964.25,525.44,907.52,659Z" transform="translate(-39.51 -47.22)"/><path class="cls-2" d="M102.88,793.35a14.49,14.49,0,0,0,14.45,14.43H898.51A14.49,14.49,0,0,0,913,793.35l6.5-448.93c0-7.94-9.35-23.43-26.49-22.27L129.51,302.4a36.4,36.4,0,0,0-37.36,37.23Z" transform="translate(-39.51 -47.22)"/><path class="cls-3" d="M117.14,779.5a13.71,13.71,0,0,0,13.67,13.67H879.67a13.71,13.71,0,0,0,13.67-13.67L899.47,372c-.72-24.52-22.22-33.34-35.25-32.82L132.51,319.51a25.58,25.58,0,0,0-26.25,26.18Z" transform="translate(-39.51 -47.22)"/><path class="cls-4" d="M885.25,585.89h0a2,2,0,0,1-2-2l.49-33.05a2,2,0,0,1,2-2h0a2,2,0,0,1,2,2l-.48,33A2,2,0,0,1,885.25,585.89Z" transform="translate(-39.51 -47.22)"/><path class="cls-4" d="M886.44,504.9h0a2,2,0,0,1-2-2l1.86-126.59c0-7.52-2.32-13.52-6.78-17.8-8.34-8-21.58-7.58-22.14-7.56L623.5,344.65a2,2,0,0,1-2-2,1.92,1.92,0,0,1,2.06-2l233.73,6.27c1.46-.08,15.55-.33,24.94,8.67,5.28,5.06,8,12,8,20.71l-1.86,126.63A2,2,0,0,1,886.44,504.9Z" transform="translate(-39.51 -47.22)"/><rect class="cls-5" x="39.51" y="805.6" width="920.99" height="39.44" rx="5.65" transform="translate(960.49 1603.42) rotate(180)"/><path class="cls-6" d="M760.69,71.91,270,68.91a28.08,28.08,0,0,0-28.22,29.47l33.75,697.16H821.58L851.9,172.67Z" transform="translate(-39.51 -47.22)"/><path class="cls-3" d="M781.1,169.68a28.08,28.08,0,0,1-27-30.28l6.6-67.49L852,172.26Z" transform="translate(-39.51 -47.22)"/><path class="cls-7" d="M549.38,247.76c39.08.55,189.12,2.5,227,3,4.78.06,8.61,3.22,8.47,7h0c-.14,3.57-3.85,6.37-8.4,6.32l-226.89-2.13c-4.37,0-8-2.69-8.48-6.11l-.11-.87C540.48,251,544.38,247.69,549.38,247.76Z" transform="translate(-39.51 -47.22)"/><path class="cls-7" d="M545.31,289.4h0a3.91,3.91,0,0,0,3.12,1.5l155.72,3.34c2,0,3.57-1.15,3.63-2.69l.31-8.06c.06-1.6-1.58-2.94-3.62-3L553,279.14C546.27,279.07,542,284.71,545.31,289.4Z" transform="translate(-39.51 -47.22)"/><path class="cls-7" d="M546.3,320.66c39.09.55,189.12,2.51,227,3,4.78.06,8.61,3.22,8.47,7h0c-.14,3.58-3.85,6.37-8.4,6.33l-226.9-2.13c-4.37-.05-8-2.7-8.47-6.12l-.11-.87C537.41,323.92,541.31,320.59,546.3,320.66Z" transform="translate(-39.51 -47.22)"/><path class="cls-7" d="M542.24,362.3h0a3.91,3.91,0,0,0,3.11,1.5l155.73,3.34c2,.05,3.57-1.15,3.63-2.68l.31-8.06c.06-1.61-1.58-2.95-3.62-3L549.94,352C543.2,352,539,357.62,542.24,362.3Z" transform="translate(-39.51 -47.22)"/><g class="cls-8"><path class="cls-3" d="M479.39,242.57a4.13,4.13,0,0,0-3.39-1.36l-121.33,2.54L351.6,234a3.15,3.15,0,0,0-3.14-2.19l-16.66.44a3.14,3.14,0,0,0-3.24,3.07,3,3,0,0,0,3.24,2.91l14.23-.34,25.76,82.32a3.42,3.42,0,0,0,3.21,2.36l85.17,1.14c2,0,3.62-1.23,3.62-3.12a3.37,3.37,0,0,0-3.62-3.2l-82.68-.89-6.64-21.38,90.86.14a4.2,4.2,0,0,0,4-2.9L480.07,246A3.67,3.67,0,0,0,479.39,242.57Z" transform="translate(-39.51 -47.22)"/><path class="cls-3" d="M387.46,327.66a12.29,12.29,0,0,0-12.68,12.16,12.94,12.94,0,0,0,12.68,12.69,12.3,12.3,0,0,0,12.82-12.16A12.93,12.93,0,0,0,387.46,327.66Zm0,18.22a6,6,0,0,1-5.93-5.92,5.73,5.73,0,0,1,5.93-5.67,6,6,0,0,1,6,5.92A5.73,5.73,0,0,1,387.46,345.88Z" transform="translate(-39.51 -47.22)"/><path class="cls-3" d="M444.23,328.55c-7.35-.12-13.3,5.47-13.3,12.44s5.95,12.82,13.3,13,13.46-5.39,13.46-12.45S451.63,328.66,444.23,328.55Zm0,18.66a6.25,6.25,0,0,1-6.22-6.07,6,6,0,0,1,6.22-5.81,6.27,6.27,0,0,1,6.26,6.07A6,6,0,0,1,444.23,347.21Z" transform="translate(-39.51 -47.22)"/></g><path class="cls-9" d="M409.9,384.87A106.07,106.07,0,1,1,516,278.8,106.18,106.18,0,0,1,409.9,384.87Zm0-203.19A97.12,97.12,0,1,0,507,278.8,97.23,97.23,0,0,0,409.9,181.68Z" transform="translate(-39.51 -47.22)"/><g class="cls-10"><path class="cls-4" d="M215.22,141.55a3,3,0,0,1-3.95,1.51c-2.93-1.3-6-2.5-9-3.55a3,3,0,0,1-1.87-3.76l0-.05a3,3,0,0,1,3.8-1.85c3.21,1.11,6.41,2.37,9.5,3.75a3,3,0,0,1,1.63,3.65C215.3,141.35,215.27,141.45,215.22,141.55Zm-28.16-6.17c-3.17-.63-6.39-1.13-9.58-1.49a3,3,0,1,1,.67-5.94c3.36.37,6.75.9,10.08,1.56a3,3,0,0,1,2.35,3.52l-.09.35A3,3,0,0,1,187.06,135.38Zm-25.3-2.15c-3.22.09-6.47.32-9.67.69a3,3,0,0,1-.68-5.95c3.37-.38,6.79-.62,10.18-.72a3,3,0,0,1,3.08,2.91,3.38,3.38,0,0,1-.15,1A3,3,0,0,1,161.76,133.23Zm-25.15,3.57c-3.12.8-6.24,1.76-9.27,2.83a3,3,0,1,1-2-5.65c3.2-1.12,6.48-2.13,9.76-3a3,3,0,0,1,3.65,2.15,3,3,0,0,1,0,1.67A3,3,0,0,1,136.61,136.8Zm-23.72,9.07c-2.86,1.48-5.69,3.1-8.42,4.82a3,3,0,0,1-3.19-5.07c2.88-1.81,5.86-3.51,8.86-5.06a3,3,0,1,1,2.75,5.31ZM91.76,160c-2.46,2.08-4.86,4.28-7.14,6.56a3,3,0,1,1-4.23-4.24c2.4-2.39,4.93-4.71,7.52-6.89a3,3,0,0,1,4.77,3.21A3,3,0,0,1,91.76,160ZM49.49,262.73a3,3,0,0,1-3.31-2.64c-.38-3.36-.61-6.79-.7-10.18a3,3,0,1,1,6-.16c.08,3.23.31,6.48.67,9.67a2.94,2.94,0,0,1-.13,1.26A3,3,0,0,1,49.49,262.73ZM74.3,178.39c-1.94,2.57-3.79,5.25-5.5,8a3,3,0,0,1-5.07-3.18c1.8-2.87,3.75-5.7,5.79-8.4a3,3,0,0,1,5.24,2.73A3.17,3.17,0,0,1,74.3,178.39ZM48.84,236.66a3,3,0,0,1-2.63-3.31c.38-3.36.91-6.76,1.58-10.08a3,3,0,0,1,5.87,1.18c-.64,3.16-1.14,6.38-1.51,9.58a3,3,0,0,1-3.31,2.63Zm12.55-36.41c-1.31,2.93-2.52,6-3.58,9a3,3,0,0,1-5.67-1.91.14.14,0,0,0,0-.06c1.12-3.21,2.38-6.4,3.77-9.48A3,3,0,0,1,61.5,200C61.47,200.05,61.43,200.15,61.39,200.25Z" transform="translate(-39.51 -47.22)"/><path class="cls-4" d="M56.23,281.26a2.85,2.85,0,0,0,0-1.78c-.44-1.48-.87-3-1.26-4.49a3,3,0,1,0-5.79,1.49c.41,1.58.85,3.17,1.32,4.73a3,3,0,0,0,5.71.05Z" transform="translate(-39.51 -47.22)"/></g><g class="cls-10"><path class="cls-4" d="M114.62,351.36a3,3,0,0,0-1.48-3.59c-1.38-.7-2.76-1.44-4.11-2.21a3,3,0,1,0-2.94,5.21c1.42.81,2.87,1.59,4.32,2.33a3,3,0,0,0,4-1.3A3.38,3.38,0,0,0,114.62,351.36Z" transform="translate(-39.51 -47.22)"/><path class="cls-4" d="M276.64,289.37a3,3,0,1,1-5.59-2.13c1.12-2.94,2.13-6,3-9.05a3,3,0,0,1,5.76,1.66c-.39,1.33-.79,2.65-1.22,4C278,285.68,277.34,287.55,276.64,289.37Zm3.23-22.94a3,3,0,0,1-2.53-3.39c.46-3.14.79-6.33,1-9.49a3,3,0,0,1,6,.37c-.2,3.32-.55,6.68-1,10a2.07,2.07,0,0,1-.12.49A3,3,0,0,1,279.87,266.43Zm-10.05,37.74c-1.6,2.93-3.34,5.82-5.19,8.6a3,3,0,0,1-5-3.3c1.75-2.65,3.41-5.39,4.93-8.17a3,3,0,0,1,5.47,2.36A2.91,2.91,0,0,1,269.82,304.17Zm11.6-63.35a3,3,0,0,1-3.22-2.76c-.24-3.15-.62-6.34-1.12-9.46a3,3,0,1,1,5.9-1c.54,3.29.94,6.64,1.19,10a2.94,2.94,0,0,1-.14,1.15A3,3,0,0,1,281.42,240.82Zm-26.7,84.89c-2.2,2.49-4.53,4.93-6.94,7.24a3,3,0,0,1-4.14-4.32c2.28-2.2,4.5-4.51,6.59-6.88a3,3,0,0,1,5.09,2.9A3,3,0,0,1,254.72,325.71ZM235.27,343.4c-2.7,2-5.51,3.83-8.36,5.56a3,3,0,0,1-3.1-5.12c2.71-1.64,5.38-3.42,7.94-5.28a3,3,0,0,1,4.61,3.35A3,3,0,0,1,235.27,343.4Zm-22.85,13c-3.06,1.33-6.21,2.54-9.37,3.6a3,3,0,1,1-1.91-5.67c3-1,6-2.16,8.91-3.42a3,3,0,0,1,4,3.67A3,3,0,0,1,212.42,356.44Zm-25.14,7.75c-3.28.62-6.62,1.11-9.94,1.46a3,3,0,0,1-.62-5.95c3.15-.33,6.32-.8,9.44-1.39a3,3,0,0,1,3.5,2.38,3,3,0,0,1-.1,1.48A3,3,0,0,1,187.28,364.19Zm-26.25,2c-3.33-.12-6.69-.37-10-.77a3,3,0,0,1,.71-5.94c3.15.37,6.34.62,9.5.73a3,3,0,0,1,2.89,3.09,3.13,3.13,0,0,1-.14.82A3,3,0,0,1,161,366.22Zm-26-3.78c-2.38-.62-4.77-1.31-7.09-2.07-.85-.27-1.68-.56-2.52-.85a3,3,0,0,1-1.84-3.81,3,3,0,0,1,3.82-1.84c.79.28,1.58.55,2.39.81,2.21.72,4.48,1.38,6.74,2a3,3,0,0,1,2.14,3.64,1.21,1.21,0,0,1-.05.18A3,3,0,0,1,135,362.44Z" transform="translate(-39.51 -47.22)"/><path class="cls-4" d="M279.23,213.48a3,3,0,0,0,0-1.8c-.48-1.55-1-3.12-1.54-4.66a3,3,0,0,0-5.64,2c.51,1.47,1,3,1.46,4.43a3,3,0,0,0,5.7,0Z" transform="translate(-39.51 -47.22)"/></g><path class="cls-4" d="M233.93,189.43a1.4,1.4,0,0,0-1.51-.61l-16.54,4.05a74.09,74.09,0,0,0-19.73-13.69l-2-16.89a1.39,1.39,0,0,0-1.09-1.2l-19.95-4.33a1.42,1.42,0,0,0-1.5.64L162.77,172a73.86,73.86,0,0,0-23.64,4.29l-13.37-10.53a1.38,1.38,0,0,0-1.62-.07L107,176.69a1.4,1.4,0,0,0-.6,1.51l4,16.53a74.21,74.21,0,0,0-13.69,19.74l-16.89,2a1.4,1.4,0,0,0-1.2,1.1l-4.32,19.95A1.39,1.39,0,0,0,75,239l14.54,8.83a74.35,74.35,0,0,0,4.29,23.63L83.26,284.86a1.4,1.4,0,0,0-.08,1.62l11,17.17a1.41,1.41,0,0,0,1.51.6l16.53-4.05A74.14,74.14,0,0,0,132,313.89l2,16.89a1.38,1.38,0,0,0,1.09,1.2l19.95,4.33a1.39,1.39,0,0,0,1.49-.64l8.83-14.55A73.86,73.86,0,0,0,189,316.83l13.37,10.53a1.38,1.38,0,0,0,1.62.07l17.17-11.05a1.4,1.4,0,0,0,.6-1.51l-4-16.53a74.21,74.21,0,0,0,13.69-19.74l16.89-2a1.4,1.4,0,0,0,1.2-1.09l4.32-20a1.39,1.39,0,0,0-.64-1.49l-14.54-8.82a74.41,74.41,0,0,0-4.29-23.64l10.52-13.38a1.4,1.4,0,0,0,.08-1.62Z" transform="translate(-39.51 -47.22)"/><path class="cls-6" d="M182.46,255.66a20.51,20.51,0,1,1,1.14-2.79A19.48,19.48,0,0,1,182.46,255.66Zm-33.29-4.1a15.73,15.73,0,1,0,.81-12,18.12,18.12,0,0,0-.88,2.16A15.69,15.69,0,0,0,149.17,251.56Z" transform="translate(-39.51 -47.22)"/><path class="cls-6" d="M211.66,262.43q.79-2.44,1.35-5h0q.18-.81.33-1.62a51.81,51.81,0,0,0,.82-8v-.42c0-.2,0-.4,0-.61a1.19,1.19,0,0,0-.83-1.13,1.1,1.1,0,0,0-.37-.06,1.2,1.2,0,0,0-1.2,1.19,48.1,48.1,0,0,1-58.25,47c-1.63-.35-3.22-.79-4.78-1.29a48.07,48.07,0,1,1,47.82-80.78,1.17,1.17,0,0,0,.44.26,1.2,1.2,0,0,0,1.25-.32,1.19,1.19,0,0,0-.06-1.69,50.36,50.36,0,0,0-18.86-11.14c-1.62-.53-3.27-1-5-1.34A50.46,50.46,0,0,0,148,294.7a49.28,49.28,0,0,0,5,1.36,50.47,50.47,0,0,0,58.65-33.63Z" transform="translate(-39.51 -47.22)"/><g class="cls-10"><path class="cls-4" d="M321.9,68.53a1.87,1.87,0,0,0-.72-2.1c-1.29-.89-2.63-1.74-4-2.55a1.85,1.85,0,1,0-1.9,3.17c1.28.77,2.56,1.59,3.8,2.43a1.84,1.84,0,0,0,2.56-.48A1.9,1.9,0,0,0,321.9,68.53Z" transform="translate(-39.51 -47.22)"/><path class="cls-4" d="M309.41,61.79a1.86,1.86,0,0,1-2.44.94c-2.36-1-4.79-2-7.24-2.77l-1.56-.49a1.85,1.85,0,0,1-1.24-2.3,1.91,1.91,0,0,1,2.31-1.23c.54.16,1.09.33,1.63.51a79,79,0,0,1,7.59,2.9,1.84,1.84,0,0,1,1,2.26ZM289,57.31a77,77,0,0,0-9.32-1,1.85,1.85,0,1,1,.17-3.69,80.14,80.14,0,0,1,9.78,1.08,1.86,1.86,0,0,1,1.51,2.14,2.5,2.5,0,0,1-.07.26A1.84,1.84,0,0,1,289,57.31Zm-18.71-.9a76.76,76.76,0,0,0-9.3,1.3,1.85,1.85,0,0,1-.73-3.63A80.2,80.2,0,0,1,270,52.73a1.86,1.86,0,0,1,1.9,2.41A1.86,1.86,0,0,1,270.32,56.41ZM252,60.14a75.42,75.42,0,0,0-8.7,3.53,1.84,1.84,0,0,1-2.46-.87,1.86,1.86,0,0,1,.86-2.47,82.87,82.87,0,0,1,9.12-3.7A1.85,1.85,0,1,1,252,60.14Zm-16.9,8.09a77.68,77.68,0,0,0-7.57,5.54,1.85,1.85,0,1,1-2.36-2.85,82.31,82.31,0,0,1,7.94-5.8,1.85,1.85,0,0,1,2.75,2.13A1.78,1.78,0,0,1,235.06,68.23Zm-14.41,12a76.3,76.3,0,0,0-6,7.2,1.85,1.85,0,1,1-3-2.18A79.51,79.51,0,0,1,218,77.65a1.85,1.85,0,0,1,2.61-.08,1.88,1.88,0,0,1,.49,1.92A1.93,1.93,0,0,1,220.65,80.19Zm-11.06,15.1a76.44,76.44,0,0,0-4,8.47,1.85,1.85,0,0,1-3.43-1.39,81.08,81.08,0,0,1,4.24-8.87A1.85,1.85,0,0,1,209.74,95,1.66,1.66,0,0,1,209.59,95.29Zm-11,28.15a1.86,1.86,0,0,1-1.58-2.09,78.64,78.64,0,0,1,1.64-8.39c.1-.42.21-.84.32-1.25a1.83,1.83,0,0,1,2.26-1.31,1.86,1.86,0,0,1,1.31,2.27c-.11.39-.21.78-.31,1.18a79.71,79.71,0,0,0-1.56,8,1.65,1.65,0,0,1-.07.32A1.85,1.85,0,0,1,198.63,123.44Z" transform="translate(-39.51 -47.22)"/></g><g class="cls-10"><path class="cls-4" d="M351.68,158.07a82.09,82.09,0,0,1-3.66,9,1.85,1.85,0,1,1-3.33-1.61,76.44,76.44,0,0,0,3.49-8.54,1.85,1.85,0,0,1,3.51,1.17Zm.36-7.91a1.85,1.85,0,0,1-1.42-2.19,78.19,78.19,0,0,0,1.35-9.13,1.85,1.85,0,0,1,3.68.32,79.44,79.44,0,0,1-1.42,9.57,1.46,1.46,0,0,1-.05.2A1.85,1.85,0,0,1,352,150.16Zm-8.74,25.32a81.46,81.46,0,0,1-5.72,7.81,1.85,1.85,0,0,1-2.85-2.36,78.2,78.2,0,0,0,5.46-7.45,1.84,1.84,0,0,1,2.55-.56,1.87,1.87,0,0,1,.56,2.56Zm10.82-44.09a1.84,1.84,0,0,1-1.91-1.78,76.43,76.43,0,0,0-.89-9.19,1.85,1.85,0,0,1,3.65-.58,77.85,77.85,0,0,1,.93,9.64,1.71,1.71,0,0,1-.09.64A1.85,1.85,0,0,1,354.12,131.39Zm-23.16,59a79.88,79.88,0,0,1-7.42,6.2,1.85,1.85,0,1,1-2.2-3,75.49,75.49,0,0,0,7.08-5.92,1.85,1.85,0,0,1,3,1.92A1.87,1.87,0,0,1,331,190.34Zm-15.54,11.47a83.24,83.24,0,0,1-8.7,4.25,1.85,1.85,0,1,1-1.41-3.41,79.42,79.42,0,0,0,8.29-4.06,1.85,1.85,0,0,1,2.52.7,1.88,1.88,0,0,1,.15,1.48A1.85,1.85,0,0,1,315.42,201.81Zm-17.84,7.42a81.06,81.06,0,0,1-9.47,2,1.85,1.85,0,0,1-.56-3.66,75.6,75.6,0,0,0,9-1.94,1.85,1.85,0,0,1,2.28,1.28,1.94,1.94,0,0,1,0,1.07A1.88,1.88,0,0,1,297.58,209.23Z" transform="translate(-39.51 -47.22)"/><path class="cls-4" d="M352.83,111.39a1.89,1.89,0,0,0,0-1.08c-.44-1.53-.93-3-1.44-4.51a1.85,1.85,0,0,0-3.49,1.24c.5,1.39,1,2.84,1.38,4.29a1.85,1.85,0,0,0,3.53.06Z" transform="translate(-39.51 -47.22)"/></g><path class="cls-4" d="M322.25,94a.91.91,0,0,0-1-.4l-11.07,2.7A49.68,49.68,0,0,0,297,87.12l-1.34-11.3a.92.92,0,0,0-.74-.8l-13.35-2.9a1,1,0,0,0-1,.43l-5.9,9.73a49.44,49.44,0,0,0-15.82,2.88l-8.95-7a.93.93,0,0,0-1.08,0l-11.49,7.4a.93.93,0,0,0-.4,1l2.71,11.06a49.49,49.49,0,0,0-9.17,13.21l-11.3,1.34a1,1,0,0,0-.8.74l-2.9,13.35a1,1,0,0,0,.43,1l9.74,5.9a49.43,49.43,0,0,0,2.87,15.82l-7,9a1,1,0,0,0-.05,1.08l7.4,11.49a.92.92,0,0,0,1,.4l11.06-2.7a49.68,49.68,0,0,0,13.21,9.16l1.35,11.3a.91.91,0,0,0,.73.8l13.35,2.9a1,1,0,0,0,1-.43l5.9-9.73a49.66,49.66,0,0,0,15.82-2.88l9,7.05a1,1,0,0,0,1.08.05l11.49-7.4a.92.92,0,0,0,.4-1l-2.7-11.06a49.45,49.45,0,0,0,9.16-13.21l11.3-1.35a.91.91,0,0,0,.8-.73l2.9-13.35a1,1,0,0,0-.43-1l-9.73-5.9a49.66,49.66,0,0,0-2.87-15.82l7-9a.92.92,0,0,0,0-1.08Z" transform="translate(-39.51 -47.22)"/><path class="cls-6" d="M288,138.41a14,14,0,1,1,.78-1.92A14.31,14.31,0,0,1,288,138.41Zm-17.1,3a10.3,10.3,0,0,0,13.79-4.64h0a10.29,10.29,0,0,0-18.43-9.15,12.85,12.85,0,0,0-.57,1.4A10.31,10.31,0,0,0,270.94,141.41Z" transform="translate(-39.51 -47.22)"/><path class="cls-6" d="M308.36,143.12a34.34,34.34,0,0,0,.92-3.42,34.78,34.78,0,0,0,.8-7v-.31a1.85,1.85,0,0,0-3.7,0,31.14,31.14,0,0,1-.71,6.59h0c0,.12-.05.24-.08.36a30.8,30.8,0,0,1-6.92,13.57,31.21,31.21,0,0,1-6.33,5.49l-.06,0-.17.12a31,31,0,0,1-23.44,4.24,29.28,29.28,0,0,1-3.09-.83,31.12,31.12,0,0,1,16.27-60c1,.22,2,.5,3,.82a31,31,0,0,1,11.63,6.87,1.89,1.89,0,0,0,.69.41,1.85,1.85,0,0,0,1.84-3.1,34.8,34.8,0,0,0-13-7.69c-1.12-.36-2.26-.67-3.42-.92a34.81,34.81,0,0,0-18.2,67.11c1.13.37,2.28.68,3.46.94A34.86,34.86,0,0,0,308.36,143.12Z" transform="translate(-39.51 -47.22)"/><circle class="cls-11" cx="507.31" cy="520.14" r="124.24"/><circle class="cls-12" cx="507.1" cy="520.69" r="120.35"/><path class="cls-13" d="M601.93,647.68a15.18,15.18,0,0,1-11.65-5.43L482.88,514.16a15.2,15.2,0,0,1,23.3-19.53L613.57,622.72a15.19,15.19,0,0,1-11.64,25Z" transform="translate(-39.51 -47.22)"/><path class="cls-13" d="M481.1,646.75a15.2,15.2,0,0,1-10.53-26.16L597.28,498.75a15.2,15.2,0,0,1,21.07,21.91L491.63,642.5A15.11,15.11,0,0,1,481.1,646.75Z" transform="translate(-39.51 -47.22)"/></svg>